PathFileType	4	(X/Y/Z)	C:/Users/opensim2020/Desktop/walking_exp_matlab/subject03_walking10_straight_03.trc																																																																																																																																					
DataRate	CameraRate	NumFrames	NumMarkers	Units	OrigDataRate	OrigDataStartFrame	OrigNumFrames																																																																																																																																	
100	100	8	45	mm	100	2946	417																																																																																																																																	
Frame#	Time	LFHD			RFHD			LBHD			RBHD			C7			T10			CLAV			STRN			RBAK			LSHO			LUPA			LELB			LFRM			LWRA			LWRB			LFIN			RSHO			RUPA			RELB			RFRM			RWRA			RWRB			RFIN			LASI			RASI			LPSI			RPSI			LTHI			LKNE			LTIB			LANK			LHEE			LTOE			RTHI			RKNE			RTIB			RANK			RHEE			RTOE			*39			*40			*41			*42			*43			*44		
		X1	Y1	Z1	X2	Y2	Z2	X3	Y3	Z3	X4	Y4	Z4	X5	Y5	Z5	X6	Y6	Z6	X7	Y7	Z7	X8	Y8	Z8	X9	Y9	Z9	X10	Y10	Z10	X11	Y11	Z11	X12	Y12	Z12	X13	Y13	Z13	X14	Y14	Z14	X15	Y15	Z15	X16	Y16	Z16	X17	Y17	Z17	X18	Y18	Z18	X19	Y19	Z19	X20	Y20	Z20	X21	Y21	Z21	X22	Y22	Z22	X23	Y23	Z23	X24	Y24	Z24	X25	Y25	Z25	X26	Y26	Z26	X27	Y27	Z27	X28	Y28	Z28	X29	Y29	Z29	X30	Y30	Z30	X31	Y31	Z31	X32	Y32	Z32	X33	Y33	Z33	X34	Y34	Z34	X35	Y35	Z35	X36	Y36	Z36	X37	Y37	Z37	X38	Y38	Z38	X39	Y39	Z39	X40	Y40	Z40	X41	Y41	Z41	X42	Y42	Z42	X43	Y43	Z43	X44	Y44	Z44	X45	Y45	Z45
																																																																																																																																								
209	2.08	218.3358	1633.29175	1397.33154	215.67326	1631.05054	1530.47192	97.30188	1573.59302	1397.25256	99.11856	1571.50171	1528.30957	79.7517	1420.3363	1450.70422	46.75016	1107.89978	1450.79028	203.87997	1346.19275	1445.2771	245.07475	1180.67822	1431.76599	33.4261	1243.7948	1548.27234	156.32339	1385.7998	1292.20374	156.11642	1190.3241	1219.6427	173.11249	1068.0929	1205.36707	216.83508	945.24786	1202.74548	255.04231	832.17102	1231.39355	228.3907	833.14172	1182.41687	257.12161	753.58655	1191.63599	165.93474	1365.47791	1607.46497	179.34026	1142.22949	1676.1178	201.24901	1031.0968	1686.3197	222.68294	895.49323	1686.1095	251.59512	801.13251	1647.27661	225.77051	795.58679	1694.55847	250.29416	725.53693	1683.51025	196.4821	938.8175	1316.78027	227.47708	947.13379	1552.57043	41.82782	961.52612	1386.09607	61.88182	979.22894	1532.87305	154.67632	635.92004	1262.76892	182.85799	458.1442	1272.52502	31.24523	334.5549	1293.25354	-115.30605	194.80492	1350.13281	-161.36456	199.66011	1397.34644	-46.33715	61.40587	1353.24377	186.01189	653.95288	1595.86108	208.39207	474.94223	1555.35718	175.26781	287.45331	1557.46082	161.58162	72.94269	1503.505	116.36659	41.08931	1454.42004	303.65988	36.97276	1481.91602	NaN	NaN	NaN	NaN	NaN	NaN	NaN	NaN	NaN	NaN	NaN	NaN	NaN	NaN	NaN	NaN	NaN	NaN
210	2.09	225.39427	1633.70557	1397.38684	222.80264	1631.06055	1530.83655	104.23141	1574.13757	1397.69678	106.16309	1571.84875	1528.80347	86.14922	1420.65881	1451.31116	53.12034	1108.16125	1451.65186	210.37155	1346.51794	1445.48657	251.35912	1180.9187	1432.05493	40.15844	1244.39636	1549.21045	162.07336	1386.14722	1292.45984	160.42946	1190.31042	1220.28406	176.77779	1068.01709	1206.29883	218.97057	944.6731	1203.70825	255.63393	830.95544	1231.94092	228.88623	832.45319	1182.91626	256.51495	752.42627	1191.88342	173.09877	1366.08569	1607.71118	188.32724	1143.11621	1676.61877	211.24367	1032.1925	1686.81824	233.56523	896.74414	1687.0127	262.67001	802.43787	1648.36145	237.38538	796.93176	1695.86401	262.10269	726.95135	1684.77429	203.20363	939.60992	1317.80859	233.6185	947.26874	1553.42896	48.46769	961.7699	1386.95154	68.49486	979.14844	1533.76685	165.35667	636.54395	1263.08618	196.42259	459.4848	1272.48474	46.67879	334.37439	1292.95471	-98.84156	193.28217	1349.50964	-145.33739	196.69817	1396.53674	-26.1137	61.88936	1353.32825	191.50156	653.86603	1596.02539	212.08852	474.73599	1555.55408	177.36835	287.4144	1557.55396	161.85133	73.01109	1503.59143	116.37161	41.36113	1454.37378	303.72733	36.88264	1481.8584	NaN	NaN	NaN	NaN	NaN	NaN	NaN	NaN	NaN	NaN	NaN	NaN	NaN	NaN	NaN	NaN	NaN	NaN
211	2.1	232.40067	1633.79846	1398.04395	230.10658	1631.20764	1531.34814	111.02379	1574.7262	1398.1582	113.15325	1572.22229	1529.23169	92.58138	1420.93445	1451.90161	59.71985	1108.52173	1452.39673	216.77156	1346.87427	1445.60339	257.55066	1181.26184	1432.4259	46.84861	1244.95679	1550.0907	167.82243	1386.53882	1292.72583	164.51231	1190.45483	1220.83594	179.9969	1067.97522	1207.09412	220.8828	944.16962	1204.18188	256.17044	829.8822	1232.42334	229.45354	831.94489	1183.48926	255.93718	751.51111	1192.16296	180.07072	1366.79089	1607.94531	197.11548	1144.11609	1677.08923	221.09315	1033.42065	1687.41028	244.34714	898.10254	1687.88525	273.8194	803.90656	1649.42761	248.89069	798.37775	1697.13281	274.01556	728.46777	1686.12402	210.06259	940.51843	1318.77356	240.06865	947.46021	1554.41064	54.83903	962.32257	1387.84094	75.03886	979.21545	1534.56165	175.75926	637.70575	1263.57703	209.88589	460.97525	1272.62854	62.19162	333.60541	1292.82019	-81.71767	190.43779	1348.96899	-128.82365	192.68402	1395.71704	-5.04885	61.68862	1353.55566	197.19272	653.6474	1596.06714	215.75755	474.48923	1555.7699	179.42915	287.46536	1557.62842	161.60789	73.26424	1503.61584	116.40859	41.68231	1454.36328	303.81284	36.80328	1481.77979	NaN	NaN	NaN	NaN	NaN	NaN	NaN	NaN	NaN	NaN	NaN	NaN	NaN	NaN	NaN	NaN	NaN	NaN
212	2.11	239.33263	1634.02454	1398.41394	237.07718	1631.21313	1531.58655	117.82865	1575.35645	1398.50647	120.07617	1572.69592	1529.59814	98.78379	1421.38831	1452.41919	66.0514	1108.81323	1453.25208	223.05331	1347.23242	1445.72021	263.78162	1181.64648	1432.83618	53.61468	1245.50562	1551.01196	173.52029	1386.96509	1293.02136	168.57306	1190.62122	1221.32361	183.11485	1068.11475	1207.76587	222.84464	943.83289	1204.76904	256.80969	829.07361	1232.88794	229.96121	831.5589	1183.9895	255.42552	750.74603	1192.42236	187.03006	1367.51746	1608.15259	205.82785	1145.1344	1677.56909	230.80942	1034.73267	1687.97192	255.13362	899.61096	1688.87354	285.11026	805.49359	1650.49158	260.45529	799.92059	1698.3042	285.99515	730.17059	1687.39246	216.86456	941.43073	1319.83167	246.46051	947.51398	1555.36816	61.62436	962.71802	1388.48254	81.58017	979.23767	1535.40662	186.6125	638.58398	1264.17883	223.35687	462.55173	1273.06262	78.05898	332.5354	1292.88708	-63.90899	187.02034	1348.52026	-111.72616	187.6273	1394.91882	16.97283	61.21463	1353.75061	203.21185	653.33392	1595.80554	219.39005	474.29233	1555.96838	181.40298	287.49008	1557.72424	161.76262	73.50665	1503.58252	116.48033	42.01216	1454.29712	303.90262	36.75717	1481.7793	NaN	NaN	NaN	NaN	NaN	NaN	NaN	NaN	NaN	NaN	NaN	NaN	NaN	NaN	NaN	NaN	NaN	NaN
213	2.12	246.23715	1634.23535	1398.63196	244.14171	1631.28833	1531.80945	124.46975	1576.01636	1398.8551	126.91388	1573.22339	1529.92114	105.12807	1421.78503	1452.88464	72.4891	1109.06116	1454.0553	229.31866	1347.60693	1445.81848	269.91122	1181.96155	1433.17639	60.15333	1246.10303	1551.94434	179.20506	1387.36365	1293.25732	172.59326	1190.81116	1221.80139	186.22058	1068.18323	1208.36865	224.70045	943.55322	1205.57678	257.53052	828.39923	1233.35913	230.6815	831.21918	1184.47986	255.01807	750.02075	1192.74243	193.84486	1368.2356	1608.34375	214.41383	1146.15686	1678.02698	240.38576	1036.01965	1688.53906	265.82187	901.1427	1689.68066	296.37384	807.15631	1651.47913	271.97867	801.51477	1699.42908	297.99722	731.85315	1688.50488	223.68323	942.28357	1320.82739	252.76555	947.52893	1556.39026	68.2322	963.23578	1389.02588	88.0274	979.33893	1536.09143	197.06218	639.89349	1264.60486	236.34224	464.12405	1273.86584	93.73088	331.29053	1292.98901	-45.73942	182.76883	1348.09009	-94.04375	181.55908	1394.20105	39.67253	60.35948	1353.88135	204.79744	654.52448	1598.42456	223.01762	474.09955	1556.15234	183.37144	287.56308	1557.81396	161.88806	73.73602	1503.56213	116.60865	42.39764	1454.25928	303.99927	36.66722	1481.7605	NaN	NaN	NaN	NaN	NaN	NaN	NaN	NaN	NaN	NaN	NaN	NaN	NaN	NaN	NaN	NaN	NaN	NaN
214	2.13	253.06419	1634.39026	1398.81262	251.24884	1631.38391	1532.08191	131.07806	1576.61646	1399.15576	133.64853	1573.72534	1530.20166	111.34311	1422.14221	1453.31738	78.4371	1109.51416	1454.90979	235.55573	1347.97925	1445.96851	275.99731	1182.28259	1433.52588	66.77494	1246.61194	1552.83667	184.85095	1387.71692	1293.52856	176.61847	1190.97095	1222.09326	189.2636	1068.26355	1208.84363	226.52431	943.25995	1205.83142	258.55569	827.84723	1233.75916	231.45444	830.90997	1184.97852	254.75647	749.40674	1193.11938	200.60977	1368.91785	1608.48657	222.82303	1147.18225	1678.46729	249.7729	1037.33704	1689.15076	276.38678	902.65869	1690.43054	307.69482	808.92059	1652.43982	283.44495	803.13678	1700.40466	310.16513	733.81824	1689.78015	230.23987	942.92737	1321.72571	258.96378	947.52374	1557.23267	74.71	963.80157	1389.49487	94.28478	979.3645	1536.68933	207.73766	641.11609	1265.00623	249.40639	465.89102	1274.896	109.35015	329.61942	1293.36902	-27.1117	177.65103	1347.67041	-75.74709	174.69368	1393.48291	63.31114	59.17981	1353.64099	209.10909	654.3941	1599.12317	226.52722	473.94067	1556.36804	185.34056	287.57559	1557.81091	162.05392	73.94044	1503.61377	116.6843	42.7771	1454.11108	304.05481	36.61153	1481.77429	NaN	NaN	NaN	NaN	NaN	NaN	NaN	NaN	NaN	NaN	NaN	NaN	NaN	NaN	NaN	NaN	NaN	NaN
215	2.14	259.77756	1634.47607	1398.99426	257.94498	1631.34229	1532.0498	137.59482	1577.17651	1399.44116	140.30841	1574.24048	1530.47681	117.50564	1422.42688	1453.80322	84.785	1109.68481	1455.74792	241.71985	1348.25928	1446.04468	282.09604	1182.58643	1433.87695	73.44353	1247.07605	1553.76172	190.52119	1387.99048	1293.71729	180.6696	1191.12769	1222.42004	192.23811	1068.25525	1209.23267	228.56088	942.96832	1206.28601	259.83545	827.39044	1234.10791	232.07071	830.53119	1185.44409	254.91978	748.80774	1193.57922	207.29745	1369.57117	1608.62561	231.15428	1148.14197	1678.9259	259.13873	1038.59729	1689.72461	286.88892	904.21179	1691.21729	319.0116	810.66162	1653.28137	294.90369	804.73883	1701.2688	322.08691	735.50555	1690.51294	236.93909	943.64191	1322.64063	265.11057	947.474	1558.04675	81.24027	964.13422	1389.81799	100.4498	979.4762	1537.23096	218.40039	642.32733	1265.48059	262.28403	467.33554	1276.03284	125.16098	327.85062	1293.83374	-7.52726	172.13075	1347.2644	-56.75961	167.0704	1392.79065	87.3409	57.72977	1353.2146	216.04997	653.5838	1598.51343	230.03911	473.7449	1556.65088	187.27768	287.67596	1557.93066	162.31544	74.24502	1503.38098	116.75859	43.22313	1454.00598	304.14886	36.53394	1481.79443	NaN	NaN	NaN	NaN	NaN	NaN	NaN	NaN	NaN	NaN	NaN	NaN	NaN	NaN	NaN	NaN	NaN	NaN
216	2.15	266.54453	1634.58716	1398.66687	264.74429	1631.35632	1532.18652	144.09741	1577.70166	1399.66077	146.93317	1574.69739	1530.66699	123.74946	1422.59387	1454.20935	90.81458	1109.93213	1456.58838	247.88872	1348.5415	1446.13599	288.25558	1182.77173	1434.04553	79.84661	1247.50244	1554.73218	196.1559	1388.15576	1293.90991	184.85764	1191.27588	1222.65063	195.19116	1068.15967	1209.5061	230.7921	942.76031	1206.62122	260.34808	826.5744	1234.57605	232.76155	830.13062	1185.95374	254.64999	748.09546	1194.13647	214.01581	1370.18152	1608.76465	239.3736	1149.08911	1679.39966	268.25021	1039.82764	1690.3468	297.3244	905.70758	1691.9054	330.26355	812.28174	1653.88306	306.27631	806.32587	1702.00256	334.12717	737.36676	1691.32153	243.58565	944.28448	1323.51025	271.18799	947.41821	1558.82825	87.731	964.50848	1390.0697	106.5219	979.5177	1537.65552	228.91985	643.32306	1266.0354	274.79114	469.13397	1277.49219	140.68848	325.79822	1294.33081	12.07551	166.30357	1346.90271	-37.15848	159.08951	1392.17896	111.78981	56.18522	1352.6001	221.0549	653.30792	1598.56702	233.50305	473.55679	1556.8833	189.23557	287.75238	1557.93274	162.65714	74.62057	1503.01929	116.85435	43.64408	1453.88257	304.19992	36.46059	1481.84656	NaN	NaN	NaN	NaN	NaN	NaN	NaN	NaN	NaN	NaN	NaN	NaN	NaN	NaN	NaN	NaN	NaN	NaN
